<svg xmlns="http://www.w3.org/2000/svg" viewBox="0 0 128 128">
  <defs>
    <linearGradient id="cloudGrad" x1="0%" y1="0%" x2="100%" y2="100%">
      <stop offset="0%" style="stop-color:#4FC3F7"/>
      <stop offset="100%" style="stop-color:#0288D1"/>
    </linearGradient>
    <linearGradient id="aiGrad" x1="0%" y1="0%" x2="100%" y2="100%">
      <stop offset="0%" style="stop-color:#7C4DFF"/>
      <stop offset="100%" style="stop-color:#536DFE"/>
    </linearGradient>
  </defs>
  <!-- Cloud shape -->
  <path fill="url(#cloudGrad)" d="M100 58c0-2.2-.2-4.3-.6-6.4C96.2 35.2 81.5 24 64 24c-14.3 0-26.8 8-33.2 19.8C14.4 46.4 2 60.6 2 78c0 19.9 16.1 36 36 36h58c17.7 0 32-14.3 32-32 0-15.5-11-28.4-26-31.4-.7-1.6-1.3-3.1-2-4.6z"/>
  <!-- AI Brain icon -->
  <g transform="translate(34, 44)">
    <circle cx="30" cy="25" r="22" fill="url(#aiGrad)"/>
    <circle cx="22" cy="18" r="4" fill="white"/>
    <circle cx="38" cy="18" r="4" fill="white"/>
    <circle cx="30" cy="32" r="4" fill="white"/>
    <circle cx="18" cy="30" r="3" fill="white" opacity="0.8"/>
    <circle cx="42" cy="30" r="3" fill="white" opacity="0.8"/>
    <line x1="22" y1="18" x2="38" y2="18" stroke="white" stroke-width="2" opacity="0.6"/>
    <line x1="22" y1="18" x2="30" y2="32" stroke="white" stroke-width="2" opacity="0.6"/>
    <line x1="38" y1="18" x2="30" y2="32" stroke="white" stroke-width="2" opacity="0.6"/>
  </g>
</svg>
